<svg version="1" xmlns="http://www.w3.org/2000/svg" width="1365.333" height="1365.333" viewBox="0 0 1024.000000 1024.000000"><path d="M506.5 35.9c-.6.5-9.3 1.1-19.5 1.4-10.2.3-20.3.8-22.5 1.1-14.2 1.7-28.2 3.7-35.5 5-24.3 4.4-46.3 10-68 17.3C351 64 334.8 70 330.5 72c-1.1.5-5.4 2.3-9.5 4.1-27.6 11.7-65.1 33.4-91.5 53-35.6 26.3-72.8 63.4-98.8 98.4-6.5 8.7-24.6 36-29.2 44-7.1 12.3-16.1 29.6-21.5 41.6-23 50.3-37 103.5-41.8 159.4-.9 10.5-.9 66.8 0 77 2.7 29.9 6.4 52.1 13.2 78.5 4.6 17.9 5.1 19.5 9.8 33.5 30.4 90.7 86.9 169.6 162.9 227.6 23.5 18 50.9 34.9 76.9 47.6 18.4 9 24.3 11.7 31.6 14.4 3.2 1.2 7.7 2.9 9.9 3.9s9.2 3.4 15.5 5.5c6.3 2.1 12.4 4.2 13.5 4.6 3.2 1.3 18.4 5.3 40 10.4 13.7 3.3 38.2 6.9 62.5 9.2 11.1 1 64 1 75.5 0 14.9-1.4 26.3-2.9 47.5-6.2 24.2-3.8 70.8-17.4 91.7-26.6 2.3-1.1 4.5-1.9 4.8-1.9 2.1 0 41.2-19.2 52-25.5 34.6-20.1 54.7-34.6 84.5-61.1 13.2-11.7 27.6-26.3 40.7-41.4 46.5-53.7 79.4-115.2 99.2-185.7 1.7-6.2 3.6-13.4 4.2-16 7-32.8 10.1-55 11.5-80.8.4-6.6 1-12.2 1.5-12.3 1.2-.5 1.2-31.9 0-32.4-.5-.2-1.2-5.5-1.5-11.8-1.4-26-5-51.4-11-78.5-1.7-7.3-1.9-8-6.2-23.5-14.1-50.6-39.5-103.2-70.8-146.5-8.6-12-21-27.7-26.6-33.9-27.1-30.2-47.3-48.9-75.5-70.2C767.2 109 725.6 85.3 694 72.5c-3.6-1.4-7.9-3.3-9.7-4.1-1.7-.8-3.5-1.4-3.9-1.4-.9 0-10.8-3.7-13.4-5-.9-.4-3.1-1.1-5-1.5-1.9-.4-4.1-1.1-5-1.6-.8-.5-4-1.5-7-2.3-3-.8-8.6-2.3-12.5-3.4-6.7-2-27.8-7-32-7.7-1.1-.2-6-1.1-11-2-23.3-4.2-45-6.4-63.2-6.5-8.3 0-14.4-.4-14.8-1-.8-1.2-8.8-1.3-10-.1zM549 197.4c50.3 6.2 94.3 22.2 135.5 49.1 33.3 21.7 64.5 52.2 87.6 85.5 18.5 26.6 33.6 58.2 42.4 88.5 1.4 4.9 3 10.3 3.4 12 .5 1.6 1.8 7.5 3 13 11.4 56.6 8.2 113-9.5 166.5-1.4 4.1-2.9 8.4-3.4 9.5-.5 1.1-2.1 5.1-3.6 9-3.8 10.1-15 32.4-22.4 44.5-22 36.3-52.5 69.1-87 93.7-35.2 25.1-75.2 42.7-118 51.7-24 5-34.5 6-65 6-25.4 0-31.6-.3-44.5-2.2-57.2-8.5-109.5-31.1-153.8-66.4-13.8-11.1-39.4-36.9-49.9-50.3-23-29.7-38-57-51.1-93.5-6.3-17.3-13.5-49.8-15.1-68-2.7-29.4-2.8-36.2-1.2-56.5 2.6-30.9 7.7-56 16.5-81.6C248.1 305.9 333 229 438.5 203.6c11-2.7 23.8-4.8 39-6.7 18.2-2.1 52.4-1.9 71.5.5z"/><path d="M486 353.9c-13 2.4-21.1 4.6-30.5 8.3-49.3 19.1-85.6 59.9-98.4 110.3-2.4 9.6-5.1 30-5.1 38.5s2.7 28.8 5.1 38.5c13.1 52.3 52.5 95.2 103.4 112.4 19.8 6.7 25.7 7.5 51.5 7.5 23.3 0 23.6 0 36.5-3.3 39.9-10.1 71.9-32.2 94.4-65 16.5-24.1 25-48.3 27.2-76.9 3.7-49.6-13.5-94.6-49.2-128.6-22.5-21.4-51.4-36-81.9-41.3-13.1-2.3-41.4-2.5-53-.4z"/></svg>